<svg width="15" height="15" viewBox="0 0 15 15" fill="none" xmlns="http://www.w3.org/2000/svg">
<path d="M12.4875 3.23086C11.2934 2.26993 9.4043 2.10704 9.32344 2.10118C9.19805 2.09063 9.07852 2.16094 9.02696 2.27696C9.02227 2.28399 8.98126 2.37891 8.93555 2.52657C9.7254 2.66016 10.6957 2.92852 11.5734 3.47344C11.7141 3.56016 11.7574 3.74532 11.6707 3.88594C11.6133 3.97852 11.516 4.02891 11.4152 4.02891C11.3613 4.02891 11.3063 4.01368 11.257 3.98321C9.74766 3.04688 7.86329 3 7.50001 3C7.13673 3 5.25118 3.04688 3.74298 3.98321C3.60235 4.0711 3.41719 4.02774 3.33048 3.88711C3.24258 3.74532 3.28594 3.56133 3.42657 3.47344C4.3043 2.92969 5.27462 2.66016 6.06446 2.52774C6.01876 2.37891 5.97774 2.28516 5.97423 2.27696C5.92149 2.16094 5.80313 2.08829 5.67657 2.10118C5.59571 2.10704 3.70665 2.26993 2.4961 3.24375C1.86446 3.82852 0.600006 7.24571 0.600006 10.2C0.600006 10.2527 0.614069 10.3031 0.63985 10.3488C1.51173 11.8816 3.8918 12.2824 4.43438 12.3C4.43673 12.3 4.44024 12.3 4.44376 12.3C4.53985 12.3 4.63008 12.2543 4.68633 12.177L5.23477 11.4223C3.75469 11.0402 2.99883 10.391 2.95548 10.3523C2.83126 10.2434 2.81954 10.0535 2.92969 9.9293C3.03868 9.80508 3.22852 9.79336 3.35274 9.90235C3.37032 9.91876 4.76251 11.1 7.50001 11.1C10.2422 11.1 11.6344 9.91407 11.6484 9.90235C11.7727 9.79454 11.9613 9.80508 12.0715 9.93047C12.1805 10.0547 12.1688 10.2434 12.0445 10.3523C12.0012 10.391 11.2453 11.0402 9.76524 11.4223L10.3137 12.177C10.3699 12.2543 10.4602 12.3 10.5563 12.3C10.5598 12.3 10.5633 12.3 10.5656 12.3C11.1082 12.2824 13.4883 11.8816 14.3602 10.3488C14.3859 10.3031 14.4 10.2527 14.4 10.2C14.4 7.24571 13.1356 3.82852 12.4875 3.23086ZM5.55001 9.00001C4.96993 9.00001 4.50001 8.46329 4.50001 7.8C4.50001 7.13672 4.96993 6.6 5.55001 6.6C6.13008 6.6 6.60001 7.13672 6.60001 7.8C6.60001 8.46329 6.13008 9.00001 5.55001 9.00001ZM9.45001 9.00001C8.86993 9.00001 8.40001 8.46329 8.40001 7.8C8.40001 7.13672 8.86993 6.6 9.45001 6.6C10.0301 6.6 10.5 7.13672 10.5 7.8C10.5 8.46329 10.0301 9.00001 9.45001 9.00001Z" fill="#FFFBFB"/>
</svg>
