<svg width="20" height="20" viewBox="0 0 20 20" fill="none" xmlns="http://www.w3.org/2000/svg">
<path d="M4.93357 10.336L4.97671 10.2682L7.57811 6.19864C7.61613 6.13904 7.70551 6.14522 7.73428 6.20993C8.16886 7.18393 8.54388 8.39524 8.36819 9.14935C8.29319 9.45962 8.08771 9.87984 7.85653 10.2682C7.82675 10.3247 7.79386 10.3802 7.75893 10.4336C7.74251 10.4583 7.71475 10.4727 7.68495 10.4727H5.00959C4.93766 10.4727 4.89555 10.3946 4.93357 10.336Z" fill="#FFFBFB"/>
<path d="M16.5289 11.0922V11.7364C16.5289 11.7734 16.5063 11.8062 16.4734 11.8206C16.272 11.9069 15.5826 12.2234 15.296 12.622C14.5645 13.6402 14.0056 15.096 12.7562 15.096H7.54418C5.69691 15.096 4.19998 13.5939 4.19998 11.7405V11.6809C4.19998 11.6316 4.24005 11.5915 4.28936 11.5915H7.19487C7.2524 11.5915 7.29454 11.6449 7.2894 11.7014C7.26885 11.8905 7.30378 12.0836 7.39316 12.2593C7.56576 12.6097 7.92332 12.8285 8.3096 12.8285H9.74798V11.7056H8.32605C8.25309 11.7056 8.20996 11.6213 8.25207 11.5617C8.26749 11.5381 8.28496 11.5134 8.30345 11.4857C8.43803 11.2946 8.63016 10.9977 8.82125 10.6596C8.95174 10.4316 9.07812 10.1881 9.17983 9.94356C9.20038 9.89938 9.2168 9.85418 9.23325 9.80998C9.26098 9.73191 9.28976 9.65896 9.31029 9.58602C9.33085 9.52438 9.34729 9.45965 9.36374 9.39902C9.41203 9.19149 9.43256 8.97162 9.43256 8.74353C9.43256 8.65416 9.42845 8.56067 9.42023 8.47127C9.41614 8.37367 9.4038 8.27607 9.39147 8.17847C9.38325 8.09216 9.36785 8.00689 9.35141 7.91751C9.33085 7.78702 9.30209 7.65758 9.2692 7.52709L9.25792 7.47778C9.23325 7.3884 9.21269 7.30311 9.18394 7.21373C9.10276 6.93324 9.00927 6.65996 8.91065 6.40413C8.87469 6.30242 8.83358 6.20482 8.79249 6.10722C8.73187 5.96029 8.67023 5.82673 8.61372 5.70036C8.58496 5.64282 8.56029 5.59042 8.53565 5.537C8.50789 5.47638 8.47914 5.41578 8.45036 5.35822C8.42983 5.31404 8.40618 5.27296 8.38974 5.23187L8.21407 4.9072C8.1894 4.86302 8.23049 4.81062 8.27878 4.82398L9.37812 5.12193H9.3812C9.38325 5.12193 9.38427 5.12296 9.38532 5.12296L9.53016 5.16302L9.68943 5.20822L9.74798 5.22467V4.57124C9.74798 4.25582 10.0007 4 10.313 4C10.4692 4 10.611 4.06369 10.7127 4.16747C10.8144 4.27124 10.8781 4.41302 10.8781 4.57124V5.54111L10.9952 5.57398C11.0045 5.57707 11.0137 5.58118 11.022 5.58733C11.0507 5.60891 11.0918 5.64078 11.1442 5.6798C11.1853 5.71269 11.2295 5.75276 11.2829 5.79384C11.3888 5.87913 11.5151 5.98907 11.6538 6.11542C11.6908 6.14729 11.7268 6.18016 11.7596 6.21304C11.9384 6.37947 12.1388 6.57469 12.3299 6.79044C12.3833 6.85104 12.4357 6.91269 12.4891 6.97742C12.5425 7.04318 12.599 7.10791 12.6484 7.17264C12.7131 7.25893 12.7829 7.34831 12.8436 7.44182C12.8723 7.486 12.9052 7.5312 12.9329 7.57538C13.011 7.69353 13.0799 7.8158 13.1456 7.93804C13.1734 7.99456 13.2021 8.0562 13.2268 8.11682C13.2997 8.28018 13.3573 8.44662 13.3942 8.61307C13.4056 8.64902 13.4138 8.68807 13.4179 8.723V8.7312C13.4302 8.78053 13.4343 8.83293 13.4384 8.88636C13.4549 9.05689 13.4466 9.22745 13.4096 9.39902C13.3942 9.47198 13.3737 9.5408 13.349 9.61376C13.3244 9.68362 13.2997 9.75656 13.2679 9.8254C13.2062 9.9682 13.1333 10.111 13.047 10.2446C13.0192 10.2939 12.9864 10.3463 12.9535 10.3956C12.9175 10.448 12.8805 10.4973 12.8477 10.5456C12.8025 10.6073 12.7542 10.672 12.7049 10.7295C12.6607 10.7901 12.6155 10.8508 12.5662 10.9042C12.4973 10.9853 12.4316 11.0624 12.3627 11.1364C12.3216 11.1847 12.2775 11.234 12.2323 11.2782C12.1881 11.3275 12.1429 11.3716 12.1018 11.4127C12.0329 11.4816 11.9754 11.535 11.9271 11.5792L11.8141 11.683C11.7977 11.6973 11.7761 11.7056 11.7535 11.7056H10.8781V12.8285H11.9795C12.2261 12.8285 12.4603 12.7412 12.6494 12.5809C12.7141 12.5244 12.9966 12.2799 13.3306 11.911C13.3419 11.8987 13.3562 11.8895 13.3727 11.8854L16.4148 11.0059C16.4713 10.9894 16.5289 11.0326 16.5289 11.0922Z" fill="#FFFBFB"/>
</svg>
