<svg width="10" height="10" viewBox="0 0 10 10" fill="none" xmlns="http://www.w3.org/2000/svg">
<path d="M10 1.18347C9.63136 1.38487 9.23622 1.52009 8.82082 1.58147C9.2448 1.26882 9.57057 0.773952 9.72333 0.185096C9.32741 0.47377 8.88707 0.683802 8.42023 0.796969C8.04614 0.305936 7.51305 0 6.92308 0C5.78988 0 4.87102 1.12976 4.87102 2.52422C4.87102 2.72178 4.88972 2.91455 4.92479 3.09965C3.21955 2.99415 1.70836 1.98907 0.695971 0.461302C0.519055 0.835331 0.418518 1.26882 0.418518 1.73108C0.418518 2.60669 0.780142 3.37969 1.33115 3.83332C0.994466 3.81989 0.678045 3.70576 0.401372 3.51683C0.401372 3.52738 0.401372 3.53793 0.401372 3.54848C0.401372 4.77223 1.10903 5.79169 2.04661 6.02474C1.87515 6.08229 1.69355 6.11298 1.50651 6.11298C1.37402 6.11298 1.24542 6.09763 1.11994 6.06694C1.38181 7.06915 2.13935 7.8009 3.0364 7.82104C2.33497 8.49813 1.45039 8.90093 0.48866 8.90093C0.322656 8.90093 0.159769 8.88942 0 8.86545C0.907178 9.58281 1.98582 10 3.14473 10C6.9184 10 8.98215 6.15326 8.98215 2.81768C8.98215 2.70835 8.97981 2.59806 8.9767 2.49065C9.37729 2.13484 9.72488 1.68984 10 1.18347Z" fill="#FFFBFB"/>
</svg>
